<?xml version="1.0" encoding="UTF-8"?>
<svg id="background" xmlns="http://www.w3.org/2000/svg" viewBox="0 0 366.21 357.42">
  <path class="cls-1" d="M202.19,357.42h135.9c6.19,0,11.86-1.81,16.76-5.42,4.13-3.35,7.48-7.74,9.54-12.89h0c1.81-4.9,2.32-10.06,1.29-14.96-.77-5.16-3.09-10.06-6.96-14.18l-76.85-85.87h35.33c5.93,0,11.6-1.81,16.25-5.16,4.13-3.09,7.48-7.22,9.54-12.38,2.06-4.64,2.58-9.54,2.06-14.44-.77-4.9-2.58-9.54-5.42-13.41L221.53,19.6c-4.64-6.45-10.32-11.09-16.76-14.44-6.7-3.35-13.93-5.16-21.66-5.16s-14.96,1.81-21.66,5.16c-4.13,2.06-8.25,4.9-11.6,8.25l33.27,39.71,82.01,110.37c1.29,1.81,1.55,4.13.52,6.19-1.03,2.32-3.09,3.35-5.42,3.35h-28.88c-6.19,0-11.86,2.06-16.76,5.67-4.38,3.09-7.74,7.48-9.54,12.89-1.81,4.9-2.32,10.06-1.29,14.96.77,4.9,3.09,9.8,6.7,13.93l68.08,76.07c1.55,1.81,2.06,4.13,1.03,6.45-1.03,2.06-3.09,3.35-5.42,3.35h-110.63v51.06h38.68Z"/>
  <path class="cls-1" d="M149.84,13.41c-1.81,1.81-3.61,3.87-5.16,6.19L26.57,178.71c-2.84,3.87-4.64,8.51-5.42,13.41-.52,4.9,0,9.8,2.06,14.44,2.06,5.16,5.42,9.28,9.54,12.38,4.64,3.35,10.32,5.16,16.25,5.16h35.33L7.49,309.97c-3.87,4.13-6.19,9.03-6.96,14.18-1.03,4.9-.52,10.06,1.29,14.96h0c2.06,5.16,5.42,9.54,9.54,12.89,4.9,3.61,10.57,5.42,16.76,5.42h154.99V53.12l-33.27-39.71Z"/>
  <path class="cls-1" d="M8.26,349.17c1.03,1.03,2.06,1.81,3.09,2.84,4.9,3.61,10.57,5.42,16.76,5.42h87.42l-51.06-56.99-56.22,48.74Z"/>
  <path class="cls-1" d="M84.34,224.1l-19.86,76.33,118.63,5.93s-90.52-78.14-98.77-82.26h0Z"/>
  <path class="cls-1" d="M115.54,357.42h67.56v-51.06l-118.63-5.93,51.06,56.99Z"/>
  <path class="cls-1" d="M183.11,306.36v-82.52l-98.77.26c8.25,4.13,98.77,82.26,98.77,82.26h0Z"/>
  <polygon class="cls-1" points="84.34 224.1 183.11 223.84 129.21 119.14 84.34 224.1"/>
  <path class="cls-1" d="M72.22,117.08l-45.64,61.63c-2.84,3.87-4.64,8.51-5.42,13.41-.52,4.9,0,9.8,2.06,14.44,2.06,5.16,5.42,9.28,9.54,12.38,4.64,3.35,10.32,5.16,16.25,5.16h35.33l44.87-104.96-56.99-2.06Z"/>
  <polygon class="cls-1" points="183.11 223.84 183.11 53.12 129.21 119.14 183.11 223.84"/>
  <path class="cls-1" d="M149.84,13.41c-1.81,1.81-3.61,3.87-5.16,6.19l-72.46,97.48,56.99,2.06,20.63-105.73Z"/>
  <polygon class="cls-1" points="183.11 53.12 149.84 13.41 129.21 119.14 183.11 53.12"/>
</svg>