<?xml version="1.0" encoding="UTF-8"?>
<svg id="LOGO" xmlns="http://www.w3.org/2000/svg" xmlns:xlink="http://www.w3.org/1999/xlink" viewBox="0 0 1361.3 1330">
  <defs>
    <style>
      .cls-1 {
        fill: #7b7b7b;
      }

      .cls-1, .cls-2, .cls-3, .cls-4, .cls-5, .cls-6, .cls-7, .cls-8, .cls-9, .cls-10 {
        stroke-width: 0px;
      }

      .cls-2 {
        fill: #acacac;
      }

      .cls-3 {
        fill: url(#linear-gradient);
      }

      .cls-4 {
        fill: #cbcbcb;
      }

      .cls-5 {
        fill: #868686;
      }

      .cls-6 {
        fill: #a5a5a5;
      }

      .cls-7 {
        fill: #959596;
      }

      .cls-8 {
        fill: #717172;
      }

      .cls-9 {
        fill: #a4a4a4;
      }

      .cls-10 {
        fill: #7e7e7f;
      }
    </style>
    <linearGradient id="linear-gradient" x1="645.45" y1="-57.59" x2="1026.01" y2="1309.59" gradientUnits="userSpaceOnUse">
      <stop offset="0" stop-color="#bbbcbc"/>
      <stop offset="1" stop-color="#8a8a8a"/>
    </linearGradient>
  </defs>
  <path class="cls-3" d="M751.47,1330h505.32c22.88,0,44.22-7.43,62.16-20.73,15.77-11.76,28.14-28.16,35.56-47.96h.31c6.49-17.95,8.04-37.13,4.95-55.39-3.4-18.88-12.06-37.13-25.67-52.3l-286.06-319.66h131.12c22.27,0,42.99-7.12,60.61-19.5,15.46-11.45,27.83-26.92,35.87-45.8,7.11-17.64,9.28-35.9,7.11-53.84-2.47-18.26-9.28-35.28-20.1-50.13L823.83,72.41c-17.32-23.21-38.35-41.16-62.78-53.22-25.05-12.69-51.95-19.19-80.41-19.19s-55.36,6.5-80.41,19.19c-15.77,8.05-30.31,18.26-43.3,30.94l123.7,146.99,304.92,411.25c4.95,7.12,5.88,15.78,1.86,23.21-4.02,7.74-11.13,12.38-19.79,12.38h-107.62c-22.88,0-44.22,7.43-62.16,20.73-16.08,11.76-28.45,28.47-35.87,48.27-6.49,17.95-8.35,37.13-4.95,55.08,3.4,18.88,12.06,37.13,25.67,52.3l252.66,282.83c5.88,6.5,7.42,15.47,3.71,23.83-3.71,8.05-11.44,13.31-20.41,13.31h-410.38v189.69h143.18Z"/>
  <path class="cls-9" d="M556.94,50.13c-6.8,6.81-13.3,14.23-19.17,22.28L98.94,664.69c-11.13,14.85-17.94,31.87-20.1,50.13-2.47,17.95,0,36.21,7.11,53.84,7.73,18.88,20.1,34.66,35.56,45.8,17.63,12.38,38.35,19.5,60.61,19.5h131.12L27.19,1153.62c-13.61,15.16-22.27,33.42-25.67,52.3-3.09,18.26-1.55,37.44,5.26,55.39h0c7.42,19.8,19.79,36.21,35.56,47.96,17.94,13.31,39.28,20.73,62.16,20.73h576.14V197.12l-123.7-146.99Z"/>
  <path class="cls-5" d="M30.59,1299.06c3.71,3.71,7.73,7.12,11.75,10.21,17.94,13.31,39.28,20.73,62.16,20.73h324.72l-189.26-212.28-209.37,181.34Z"/>
  <path class="cls-5" d="M313.25,833.96l-73.29,283.76,440.69,22.59s-336.47-291.5-367.39-306.35h0Z"/>
  <path class="cls-8" d="M429.22,1330h251.42v-189.69l-440.69-22.59,189.26,212.28Z"/>
  <path class="cls-1" d="M680.65,1140.31v-307.59l-367.39,1.24c30.93,14.85,367.39,306.35,367.39,306.35h0Z"/>
  <polygon class="cls-7" points="313.25 833.96 680.65 832.72 479.94 442.82 313.25 833.96"/>
  <path class="cls-2" d="M268.41,436.01l-169.47,228.68c-11.13,14.85-17.94,31.87-20.1,50.13-2.47,17.95,0,36.21,7.11,53.84,7.73,18.88,20.1,34.66,35.56,45.8,17.63,12.38,38.35,19.5,60.61,19.5h131.12l166.69-391.14-211.53-6.81Z"/>
  <polygon class="cls-10" points="680.65 832.72 680.65 197.12 479.94 442.82 680.65 832.72"/>
  <path class="cls-4" d="M556.94,50.13c-6.8,6.81-13.3,14.23-19.17,22.28l-269.36,363.6,211.53,6.81,77-392.69Z"/>
  <polygon class="cls-6" points="680.65 197.12 556.94 50.13 479.94 442.82 680.65 197.12"/>
</svg>