<?xml version="1.0" encoding="UTF-8"?>
<svg id="LOGO" xmlns="http://www.w3.org/2000/svg" viewBox="0 0 1995.09 419.98">
  <defs>
    <style>
      .cls-1 {
        fill: #fff;
        fill-rule: evenodd;
        stroke-width: 0px;
      }
    </style>
  </defs>
  <path class="cls-1" d="M641.61,355.12h9.38c52.47,0,80.24-28.92,80.24-80.04V96.22h-39.26v67.02l1.15,18.19c-10.15-11.68-24.7-18.77-45.77-18.77h-12.26c-45.58,0-73.92,28.92-73.92,79.66v32.75c0,51.13,28.34,80.04,80.43,80.04h0ZM650.61,317.97h-8.62c-26.43,0-41.17-15.32-41.17-42.51v-33.13c0-27.58,14.74-42.89,41.17-42.89h8.62c27,0,41.36,15.32,41.36,42.89v33.13c0,27.19-14.36,42.51-41.36,42.51h0ZM875.04,166.69h-28.34c-51.13,0-81.96,27.96-81.96,79.09v109.34h40.4v-105.13c0-26.23,17.62-45,42.32-45h27.58v-38.3ZM984.77,360.29h7.85c45.58,0,73.15-21.64,80.43-60.32h-41.55c-5.55,15.13-18.77,23.94-38.87,23.94h-8.23c-27.19,0-42.32-15.89-42.32-43.85v-2.11h132.9v-33.89c0-52.28-29.11-82.15-82.34-82.15h-7.85c-53.62,0-82.73,29.87-82.73,82.15v33.89c0,52.47,29.11,82.34,82.73,82.34h0ZM942.07,245.59v-3.83c0-28.34,15.13-43.66,42.32-43.66h8.62c27.19,0,42.13,15.32,42.13,43.66v3.83h-93.07ZM1275.07,354.93h-31.79v-22.6c-9.77,19.15-28.92,27.96-51.13,27.96h-16.85c-42.7,0-68.75-24.7-68.75-60.7s26.04-59.94,68.75-59.94h60.32v-9.57c0-19.15-13.98-32.36-36-32.36h-8.81c-20.68,0-33.89,10.92-36.77,26.04h-41.17c6.89-42.32,37.15-61.85,79.28-61.85h4.21c53.24,0,78.7,28.72,78.7,77.36v115.66ZM1192.92,326.01h-10.15c-22.21,0-34.66-10.92-34.66-27.58s12.45-27.58,34.66-27.58h52.85v16.28c0,26.81-18.77,38.87-42.7,38.87h0ZM1309.16,242.52v112.6h40.6v-111.45c0-26.43,13.98-42.32,38.87-42.32h4.21c24.51,0,38.87,15.89,38.87,42.32v111.45h40.41v-111.45c0-26.43,13.98-42.32,39.06-42.32h4.02c24.7,0,39.06,16.28,39.06,42.32v111.45h40.41v-112.6c0-51.89-27.57-80.62-77.17-80.62h-3.45c-34.09,0-52.85,14.74-62.04,32.17-9.19-17.43-28.34-32.17-62.24-32.17h-3.64c-49.6,0-76.98,28.72-76.98,80.62h0ZM1629.72,355.12h40.41v-188.43h-40.41v188.43ZM1629.33,140.26h40.79v-44.04h-40.79v44.04ZM1772.57,360.29h19.53c47.11,0,73.15-20.3,73.15-55.53,0-37.92-23.36-50.55-55.92-56.68-8.04-1.53-31.98-6.32-38.87-7.66-16.85-3.45-26.43-8.81-26.43-22.6s9.38-20.11,34.09-20.11h10.34c27.19,0,33.51,11.3,33.51,24.7h40.79c0-33.89-24.7-60.51-71.81-60.51h-15.32c-46.34,0-72.58,19.92-72.58,54.96,0,37.53,22.79,49.6,55.53,56.3,7.47,1.34,32.17,6.51,38.3,7.66,17.62,3.26,27.58,8.81,27.58,23.17,0,12.83-9.57,20.3-34.47,20.3h-14.75c-27.57,0-34.28-11.11-34.66-25.85h-40.4c0,35.43,25.09,61.85,72.38,61.85h0ZM1892.83,122.65v158.56c0,49.98,30.64,73.92,78.7,73.92h23.55v-37.15h-17.23c-24.32,0-44.43-8.81-44.43-39.83v-74.87h57.26v-36.58h-57.26v-44.04h-40.6Z"/>
  <path class="cls-1" d="M387.55,322.46c16.69-26.42,27.2-56.09,30.9-87.15,1.08-8.19,1.55-16.53,1.55-24.88-20.71,44.96-63.04,76.95-112.18,84.52l79.73,27.5Z"/>
  <path class="cls-1" d="M383.53,328.33l-90.7-31.21-61.96,121.91c61.65-6.18,117.74-39.56,152.66-90.7h0Z"/>
  <polygon class="cls-1" points="285.26 296.97 157.32 302.84 224.84 415.79 285.26 296.97"/>
  <path class="cls-1" d="M147.58,205.03l6.95,91.17,92.4-4.33c-35.69-9.43-66.44-31.68-86.68-62.89-4.94-7.57-9.12-15.61-12.67-23.95h0Z"/>
  <path class="cls-1" d="M136.3,154.04l-84.83,62.43,95.96,75.71-9.27-120.37c-.93-5.87-1.55-11.9-1.85-17.77h0Z"/>
  <polygon class="cls-1" points="48.23 222.64 30.61 314.43 143.1 297.43 48.23 222.64"/>
  <path class="cls-1" d="M24.74,308.71l17.62-91.94-30.59-76.18c-4.94,14.37-8.34,29.05-10.2,44.04-5.25,42.96,2.78,86.07,23.18,124.08h0Z"/>
  <path class="cls-1" d="M15.47,131.17l30.13,75.4L108.8,25.94c-42.18,23.33-75.25,60.42-93.33,105.23h0Z"/>
  <polygon class="cls-1" points="135.84 145.85 114.05 32.12 52.87 207.04 135.84 145.85"/>
  <path class="cls-1" d="M118.84,20.84l19.62,101.67c10.04-57.79,53.46-104.61,110.48-118.82-4.48-.93-8.96-1.55-13.6-2.16-40.02-4.79-80.19,1.7-116.51,19.31h0Z"/>
  <path class="cls-1" d="M146.04,304.07l-114.03,17.15c21.17,33.84,50.99,60.57,86.07,77.57l27.97-94.72Z"/>
  <path class="cls-1" d="M219.13,419.81l-67.06-112.49-27.81,94.41c18.85,8.5,39.25,14.22,60.42,16.69,11.43,1.39,23.02,1.85,34.46,1.39h0Z"/>
  <path class="cls-1" d="M258.84,192.82c14.37-6.64,25.19-19.16,29.82-34.3.31-1.08,1.24-1.85,2.16-1.85,1.08,0,2.01.77,2.32,1.85,4.64,15.14,15.45,27.66,29.82,34.3.77.46,1.39,1.39,1.39,2.63,0,1.08-.62,2.01-1.39,2.47-14.37,6.64-25.19,19.16-29.82,34.3-.31,1.08-1.24,1.85-2.32,1.85-.93,0-1.85-.77-2.16-1.85-4.64-15.14-15.45-27.66-29.82-34.3-.77-.46-1.39-1.39-1.39-2.47,0-1.24.62-2.16,1.39-2.63h0Z"/>
  <path class="cls-1" d="M332.23,89.14c9.89-4.48,17.46-13.29,20.71-23.8.31-.77.93-1.39,1.55-1.39.77,0,1.39.62,1.55,1.39,3.24,10.51,10.82,19.31,20.86,23.8.62.31.93,1.08.93,1.85s-.31,1.55-.93,1.85c-10.04,4.48-17.62,13.29-20.86,23.8-.15.77-.77,1.39-1.55,1.39-.62,0-1.24-.62-1.55-1.39-3.24-10.51-10.82-19.31-20.71-23.8-.62-.31-1.08-1.08-1.08-1.85s.46-1.55,1.08-1.85h0Z"/>
  <path class="cls-1" d="M190.54,129.16c6.8-3.09,11.9-8.96,14.06-16.07.15-.62.62-.93,1.08-.93s.77.31.93.93c2.32,7.11,7.42,12.98,14.06,16.07.46.15.77.62.77,1.24,0,.46-.31.93-.77,1.24-6.64,3.09-11.74,8.96-14.06,16.07-.15.46-.46.93-.93.93s-.93-.46-1.08-.93c-2.16-7.11-7.26-12.98-14.06-16.07-.31-.31-.62-.77-.62-1.24,0-.62.31-1.08.62-1.24h0Z"/>
</svg>