<?xml version="1.0" encoding="UTF-8"?>
<svg id="LOGO" xmlns="http://www.w3.org/2000/svg" viewBox="0 0 767.84 767.81">
  <defs>
    <style>
      .cls-1 {
        fill: #fff;
        fill-rule: evenodd;
        stroke-width: 0px;
      }
    </style>
  </defs>
  <path class="cls-1" d="M708.52,589.52c30.51-48.31,49.72-102.54,56.5-159.32,1.98-14.97,2.82-30.23,2.82-45.48-37.85,82.2-115.26,140.68-205.09,154.52l145.76,50.28Z"/>
  <path class="cls-1" d="M701.17,600.26l-165.82-57.06-113.28,222.88c112.71-11.3,215.26-72.32,279.1-165.82h0Z"/>
  <polygon class="cls-1" points="521.51 542.91 287.61 553.65 411.06 760.15 521.51 542.91"/>
  <path class="cls-1" d="M269.81,374.83l12.71,166.67,168.93-7.91c-65.25-17.23-121.47-57.91-158.48-114.97-9.04-13.84-16.67-28.53-23.16-43.79h0Z"/>
  <path class="cls-1" d="M249.19,281.61l-155.09,114.13,175.43,138.42-16.95-220.06c-1.69-10.73-2.82-21.75-3.39-32.49h0Z"/>
  <polygon class="cls-1" points="88.17 407.03 55.97 574.83 261.62 543.76 88.17 407.03"/>
  <path class="cls-1" d="M45.23,564.38l32.2-168.08-55.93-139.27c-9.04,26.27-15.25,53.11-18.64,80.51-9.6,78.53,5.08,157.35,42.37,226.84h0Z"/>
  <path class="cls-1" d="M28,239.8l55.37,137.85L198.91,47.43C121.79,90.08,61.34,157.88,28,239.8h0Z"/>
  <polygon class="cls-1" points="248.34 266.64 208.51 58.72 96.65 378.5 248.34 266.64"/>
  <path class="cls-1" d="M217.27,38.1l35.88,185.88c18.36-105.65,97.74-191.25,201.98-217.23-8.19-1.69-16.38-2.82-24.86-3.95-73.16-8.76-146.61,3.11-213,35.31h0Z"/>
  <path class="cls-1" d="M266.99,555.91l-208.76,31.36c38.7,61.87,93.5,110.74,157.63,141.81l51.13-173.17Z"/>
  <path class="cls-1" d="M400.61,767.49l-122.6-205.37-50.85,172.32c34.46,15.54,71.75,25.99,110.45,30.51,20.9,2.54,42.09,3.39,63,2.54h0Z"/>
  <path class="cls-1" d="M473.21,352.51c26.27-12.15,46.05-35.03,54.52-62.71.57-1.98,2.26-3.39,3.95-3.39,1.98,0,3.67,1.41,4.24,3.39,8.47,27.68,28.25,50.57,54.24,62.71,1.7.85,2.82,2.54,2.82,4.8,0,1.98-1.13,3.67-2.82,4.52-25.99,12.15-45.76,35.03-54.24,62.71-.56,1.98-2.26,3.39-4.24,3.39-1.69,0-3.39-1.41-3.95-3.39-8.47-27.68-28.25-50.57-54.52-62.71-1.41-.85-2.54-2.54-2.54-4.52,0-2.26.85-3.95,2.54-4.8h0Z"/>
  <path class="cls-1" d="M607.39,162.96c18.08-8.19,31.92-24.29,37.85-43.5.57-1.41,1.7-2.54,2.83-2.54,1.41,0,2.54,1.13,2.82,2.54,5.93,19.21,19.77,35.31,38.14,43.5,1.13.56,1.69,1.98,1.69,3.39s-.56,2.82-1.69,3.39c-18.36,8.19-32.2,24.29-38.14,43.5-.28,1.41-1.41,2.54-2.82,2.54-1.13,0-2.26-1.13-2.83-2.54-5.93-19.21-19.77-35.31-37.85-43.5-1.13-.56-1.98-1.98-1.98-3.39s.85-2.82,1.98-3.39h0Z"/>
  <path class="cls-1" d="M348.35,236.13c12.43-5.65,21.75-16.38,25.71-29.38.28-1.13,1.13-1.69,1.98-1.69s1.41.56,1.69,1.69c4.24,12.99,13.56,23.73,25.71,29.38.85.28,1.13,1.13,1.13,2.26s-.28,1.7-1.13,2.26c-12.15,5.65-21.47,16.38-25.71,29.38-.28,1.13-.85,1.69-1.69,1.69s-1.69-.56-1.98-1.69c-3.95-12.99-13.28-23.73-25.71-29.38-.56-.56-1.13-1.13-1.13-2.26s.56-1.98,1.13-2.26h0Z"/>
</svg>