<?xml version="1.0" encoding="UTF-8"?>
<svg id="LOGO" xmlns="http://www.w3.org/2000/svg" viewBox="0 0 2090.17 520.48">
  <defs>
    <style>
      .cls-1 {
        fill: #ed400f;
      }

      .cls-1, .cls-2, .cls-3, .cls-4, .cls-5, .cls-6, .cls-7, .cls-8, .cls-9, .cls-10, .cls-11, .cls-12, .cls-13 {
        fill-rule: evenodd;
        stroke-width: 0px;
      }

      .cls-2 {
        fill: #ca0031;
      }

      .cls-3 {
        fill: #4a5fed;
      }

      .cls-4 {
        fill: #ee2562;
      }

      .cls-5 {
        fill: #00d883;
      }

      .cls-6 {
        fill: #9ee234;
      }

      .cls-7 {
        fill: #12bf1b;
      }

      .cls-8 {
        fill: #edb35c;
      }

      .cls-9 {
        fill: #9627dc;
      }

      .cls-10 {
        fill: #ea8c1b;
      }

      .cls-11 {
        fill: #ed62e2;
      }

      .cls-12 {
        fill: #333;
      }

      .cls-13 {
        fill: #e3e31d;
      }
    </style>
  </defs>
  <path class="cls-12" d="M736.7,405.37h9.38c52.47,0,80.24-28.92,80.24-80.04v-178.85h-39.26v67.02l1.15,18.19c-10.15-11.68-24.7-18.77-45.77-18.77h-12.26c-45.58,0-73.92,28.92-73.92,79.66v32.75c0,51.13,28.34,80.04,80.43,80.04h0ZM745.7,368.22h-8.62c-26.43,0-41.17-15.32-41.17-42.51v-33.13c0-27.58,14.74-42.89,41.17-42.89h8.62c27,0,41.36,15.32,41.36,42.89v33.13c0,27.19-14.36,42.51-41.36,42.51h0ZM970.13,216.94h-28.34c-51.13,0-81.96,27.96-81.96,79.09v109.34h40.4v-105.13c0-26.23,17.62-45,42.32-45h27.57v-38.3ZM1079.85,410.54h7.85c45.58,0,73.15-21.64,80.43-60.32h-41.55c-5.55,15.13-18.77,23.94-38.87,23.94h-8.23c-27.19,0-42.32-15.89-42.32-43.85v-2.11h132.9v-33.89c0-52.28-29.11-82.15-82.34-82.15h-7.85c-53.62,0-82.73,29.87-82.73,82.15v33.89c0,52.47,29.11,82.34,82.73,82.34h0ZM1037.15,295.83v-3.83c0-28.34,15.13-43.66,42.32-43.66h8.62c27.19,0,42.13,15.32,42.13,43.66v3.83h-93.07ZM1370.16,405.18h-31.79v-22.6c-9.77,19.15-28.92,27.96-51.13,27.96h-16.85c-42.7,0-68.75-24.7-68.75-60.7s26.04-59.94,68.75-59.94h60.32v-9.57c0-19.15-13.98-32.36-36-32.36h-8.81c-20.68,0-33.89,10.92-36.77,26.04h-41.17c6.89-42.32,37.15-61.85,79.28-61.85h4.21c53.24,0,78.7,28.72,78.7,77.36v115.66ZM1288.01,376.26h-10.15c-22.21,0-34.66-10.92-34.66-27.57s12.45-27.58,34.66-27.58h52.85v16.28c0,26.81-18.77,38.87-42.7,38.87h0ZM1404.24,292.77v112.6h40.6v-111.45c0-26.43,13.98-42.32,38.87-42.32h4.21c24.51,0,38.87,15.89,38.87,42.32v111.45h40.4v-111.45c0-26.43,13.98-42.32,39.06-42.32h4.02c24.7,0,39.06,16.28,39.06,42.32v111.45h40.41v-112.6c0-51.89-27.57-80.62-77.17-80.62h-3.45c-34.09,0-52.85,14.74-62.04,32.17-9.19-17.43-28.34-32.17-62.24-32.17h-3.64c-49.6,0-76.98,28.72-76.98,80.62h0ZM1724.8,405.37h40.41v-188.43h-40.41v188.43ZM1724.42,190.51h40.79v-44.04h-40.79v44.04ZM1867.66,410.54h19.53c47.11,0,73.15-20.3,73.15-55.53,0-37.92-23.36-50.55-55.92-56.68-8.04-1.53-31.98-6.32-38.87-7.66-16.85-3.45-26.43-8.81-26.43-22.6s9.38-20.11,34.09-20.11h10.34c27.19,0,33.51,11.3,33.51,24.7h40.79c0-33.89-24.7-60.51-71.81-60.51h-15.32c-46.34,0-72.58,19.92-72.58,54.96,0,37.53,22.79,49.6,55.53,56.3,7.47,1.34,32.17,6.51,38.3,7.66,17.62,3.26,27.58,8.81,27.58,23.17,0,12.83-9.57,20.3-34.47,20.3h-14.74c-27.57,0-34.28-11.11-34.66-25.85h-40.4c0,35.43,25.09,61.85,72.38,61.85h0ZM1987.92,172.9v158.56c0,49.98,30.64,73.92,78.7,73.92h23.55v-37.15h-17.23c-24.32,0-44.43-8.81-44.43-39.83v-74.87h57.26v-36.58h-57.26v-44.04h-40.6Z"/>
  <path class="cls-3" d="M480.29,399.62c20.68-32.75,33.7-69.51,38.3-108,1.34-10.15,1.91-20.49,1.91-30.83-25.66,55.72-78.13,95.36-139.02,104.75l98.81,34.09Z"/>
  <path class="cls-9" d="M475.31,406.9l-112.41-38.68-76.79,151.09c76.41-7.66,145.92-49.02,189.2-112.41h0Z"/>
  <polygon class="cls-11" points="353.52 368.03 194.96 375.3 278.65 515.29 353.52 368.03"/>
  <path class="cls-8" d="M182.9,254.09l8.62,112.98,114.51-5.36c-44.24-11.68-82.34-39.26-107.43-77.94-6.13-9.38-11.3-19.34-15.7-29.68h0Z"/>
  <path class="cls-10" d="M168.92,190.9l-105.13,77.36,118.92,93.83-11.49-149.17c-1.15-7.28-1.91-14.74-2.3-22.02h0Z"/>
  <polygon class="cls-1" points="59.77 275.92 37.94 389.67 177.35 368.6 59.77 275.92"/>
  <path class="cls-7" d="M30.66,382.58l21.83-113.94L14.58,174.24c-6.13,17.81-10.34,36-12.64,54.58-6.51,53.24,3.45,106.66,28.72,153.77h0Z"/>
  <path class="cls-5" d="M19.17,162.56l37.34,93.45L134.84,32.15C82.56,61.06,41.58,107.02,19.17,162.56h0Z"/>
  <polygon class="cls-6" points="168.35 180.75 141.35 39.81 65.52 256.58 168.35 180.75"/>
  <path class="cls-13" d="M147.28,25.83l24.32,126C184.05,80.21,237.86,22.19,308.52,4.57c-5.55-1.15-11.11-1.91-16.85-2.68-49.6-5.94-99.39,2.11-144.39,23.94h0Z"/>
  <path class="cls-2" d="M180.99,376.84l-141.32,21.26c26.23,41.94,63.19,75.07,106.66,96.13l34.66-117.39Z"/>
  <path class="cls-4" d="M271.56,520.26l-83.11-139.41-34.47,117c23.36,10.53,48.64,17.62,74.87,20.68,14.17,1.72,28.53,2.3,42.7,1.72h0Z"/>
  <path class="cls-8" d="M320.78,238.96c17.81-8.23,31.21-23.75,36.96-42.51.38-1.34,1.53-2.3,2.68-2.3,1.34,0,2.49.96,2.87,2.3,5.74,18.77,19.15,34.28,36.96,42.51.96.57,1.72,1.72,1.72,3.26,0,1.34-.77,2.49-1.72,3.06-17.81,8.23-31.21,23.75-36.96,42.51-.38,1.34-1.53,2.3-2.87,2.3-1.15,0-2.3-.96-2.68-2.3-5.74-18.77-19.15-34.28-36.96-42.51-.96-.57-1.72-1.72-1.72-3.06,0-1.53.77-2.68,1.72-3.26h0Z"/>
  <path class="cls-3" d="M411.73,110.47c12.26-5.55,21.64-16.47,25.66-29.49.38-.96,1.15-1.72,1.91-1.72.96,0,1.72.77,1.91,1.72,4.02,13.02,13.4,23.94,25.85,29.49.77.38,1.15,1.34,1.15,2.3s-.38,1.91-1.15,2.3c-12.45,5.55-21.83,16.47-25.85,29.49-.19.96-.96,1.72-1.91,1.72-.77,0-1.53-.77-1.91-1.72-4.02-13.02-13.4-23.94-25.66-29.49-.77-.38-1.34-1.34-1.34-2.3s.57-1.91,1.34-2.3h0Z"/>
  <path class="cls-5" d="M236.14,160.07c8.43-3.83,14.74-11.11,17.43-19.92.19-.77.77-1.15,1.34-1.15s.96.38,1.15,1.15c2.87,8.81,9.19,16.09,17.43,19.92.57.19.96.77.96,1.53,0,.57-.38,1.15-.96,1.53-8.23,3.83-14.55,11.11-17.43,19.92-.19.57-.57,1.15-1.15,1.15s-1.15-.57-1.34-1.15c-2.68-8.81-9-16.09-17.43-19.92-.38-.38-.77-.96-.77-1.53,0-.77.38-1.34.77-1.53h0Z"/>
</svg>